<svg width="18" height="19" viewBox="0 0 18 19" fill="none" xmlns="http://www.w3.org/2000/svg">
<g opacity="0.3">
<path d="M1.5 6.5V5C1.5 4.60218 1.65804 4.22064 1.93934 3.93934C2.22064 3.65804 2.60218 3.5 3 3.5H15C15.3978 3.5 15.7794 3.65804 16.0607 3.93934C16.342 4.22064 16.5 4.60218 16.5 5V14C16.5 14.3978 16.342 14.7794 16.0607 15.0607C15.7794 15.342 15.3978 15.5 15 15.5H10.5" stroke="#191B20" stroke-width="2" stroke-linecap="round" stroke-linejoin="round"/>
<path d="M1.5 9.5C3.03553 9.66295 4.46878 10.3475 5.56066 11.4393C6.65254 12.5312 7.33705 13.9645 7.5 15.5" stroke="#191B20" stroke-width="2" stroke-linecap="round" stroke-linejoin="round"/>
<path d="M1.5 12.5C2.24449 12.6387 2.92956 12.9995 3.46504 13.535C4.00053 14.0704 4.36134 14.7555 4.5 15.5" stroke="#191B20" stroke-width="2" stroke-linecap="round" stroke-linejoin="round"/>
<path d="M1.5 15.5H1.50615" stroke="#191B20" stroke-width="2" stroke-linecap="round" stroke-linejoin="round"/>
</g>
</svg>
