<svg width="18" height="19" viewBox="0 0 18 19" fill="none" xmlns="http://www.w3.org/2000/svg">
<g opacity="0.3">
<path d="M3 17C2.60218 17 2.22064 16.842 1.93934 16.5607C1.65804 16.2794 1.5 15.8978 1.5 15.5V8.75C1.5 7.925 2.175 7.25 3 7.25H4.5M3 17H15C15.3978 17 15.7794 16.842 16.0607 16.5607C16.342 16.2794 16.5 15.8978 16.5 15.5V3.5C16.5 3.10218 16.342 2.72064 16.0607 2.43934C15.7794 2.15804 15.3978 2 15 2H6C5.60218 2 5.22064 2.15804 4.93934 2.43934C4.65804 2.72064 4.5 3.10218 4.5 3.5V15.5C4.5 15.8978 4.34196 16.2794 4.06066 16.5607C3.77936 16.842 3.39782 17 3 17Z" stroke="#191B20" stroke-width="2" stroke-linecap="round" stroke-linejoin="round"/>
<path d="M13.5 11H7.5" stroke="#191B20" stroke-width="2" stroke-linecap="round" stroke-linejoin="round"/>
<path d="M11.25 14H7.5" stroke="#191B20" stroke-width="2" stroke-linecap="round" stroke-linejoin="round"/>
<path d="M7.5 5H13.5V8H7.5V5Z" stroke="#191B20" stroke-width="2" stroke-linecap="round" stroke-linejoin="round"/>
</g>
</svg>
